<?xml version="1.0" encoding="UTF-8" standalone="no"?>
<!DOCTYPE svg PUBLIC "-//W3C//DTD SVG 1.1//EN" "http://www.w3.org/Graphics/SVG/1.1/DTD/svg11.dtd">
<svg width="100%" height="100%" viewBox="0 0 72 80" version="1.1" xmlns="http://www.w3.org/2000/svg" xmlns:xlink="http://www.w3.org/1999/xlink" xml:space="preserve" xmlns:serif="http://www.serif.com/" style="fill-rule:evenodd;clip-rule:evenodd;stroke-linecap:round;stroke-linejoin:round;stroke-miterlimit:1.5;">
    <g id="Page-1">
        <g id="Group-9">
            <path id="Fill-1" d="M70.001,72.285L2,72.285L2,68.228L70,68.228L70.001,72.285ZM65.01,78.001L62.009,78.001L62.009,74.285L65.01,74.285L65.01,78.001ZM10.017,78.001L7.016,78.001L7.016,74.285L10.017,74.285L10.017,78.001ZM7.016,41.01L16.154,41.01L16.154,48.568C16.154,49.269 16.51,49.906 17.108,50.272C17.705,50.639 18.435,50.668 19.06,50.351L21.091,49.319L23.122,50.351C23.41,50.497 23.72,50.57 24.03,50.57C24.392,50.57 24.752,50.47 25.074,50.272C25.672,49.906 26.029,49.269 26.029,48.568L26.029,41.01L35.058,41.01L35.058,66.229L7.016,66.229L7.016,41.01ZM18.154,41.01L24.029,41.01L24.029,48.568L21.996,47.535C21.431,47.249 20.754,47.247 20.185,47.536L18.154,48.568L18.154,41.01ZM53.677,48.568L51.645,47.536C51.079,47.248 50.401,47.247 49.833,47.536L47.802,48.568L47.802,41.01L53.676,41.01L53.677,48.568ZM65.01,66.229L37.059,66.229L37.059,41.01L45.802,41.01L45.802,48.568C45.802,49.269 46.158,49.906 46.755,50.272C47.352,50.639 48.081,50.668 48.708,50.351L50.739,49.319L52.771,50.351C53.059,50.497 53.368,50.57 53.678,50.57C54.039,50.57 54.4,50.47 54.722,50.272C55.32,49.906 55.676,49.269 55.676,48.568L55.676,41.01L65.01,41.01L65.01,66.229ZM70,66.229L67.01,66.229L67.01,39.01L5.016,39.01L5.016,66.229L2,66.229C0.898,66.229 0,67.126 0,68.228L0,72.285C0,73.388 0.898,74.285 2,74.285L5.016,74.285L5.016,78.001C5.016,79.103 5.913,80 7.016,80L10.017,80C11.119,80 12.017,79.103 12.017,78.001L12.017,74.285L60.009,74.285L60.009,78.001C60.009,79.103 60.906,80 62.009,80L65.01,80C66.113,80 67.01,79.103 67.01,78.001L67.01,74.285L70,74.285C71.103,74.285 72,73.388 72,72.285L72,68.228C72,67.126 71.103,66.229 70,66.229Z"/>
            <path id="Fill-11" serif:id="Fill-1" d="M70.001,72.285L2,72.285L2,68.228L70,68.228L70.001,72.285ZM65.01,78.001L62.009,78.001L62.009,74.285L65.01,74.285L65.01,78.001ZM10.017,78.001L7.016,78.001L7.016,74.285L10.017,74.285L10.017,78.001ZM7.016,41.01L16.154,41.01L16.154,48.568C16.154,49.269 16.51,49.906 17.108,50.272C17.705,50.639 18.435,50.668 19.06,50.351L21.091,49.319L23.122,50.351C23.41,50.497 23.72,50.57 24.03,50.57C24.392,50.57 24.752,50.47 25.074,50.272C25.672,49.906 26.029,49.269 26.029,48.568L26.029,41.01L35.058,41.01L35.058,66.229L7.016,66.229L7.016,41.01ZM18.154,41.01L24.029,41.01L24.029,48.568L21.996,47.535C21.431,47.249 20.754,47.247 20.185,47.536L18.154,48.568L18.154,41.01ZM53.677,48.568L51.645,47.536C51.079,47.248 50.401,47.247 49.833,47.536L47.802,48.568L47.802,41.01L53.676,41.01L53.677,48.568ZM65.01,66.229L37.059,66.229L37.059,41.01L45.802,41.01L45.802,48.568C45.802,49.269 46.158,49.906 46.755,50.272C47.352,50.639 48.081,50.668 48.708,50.351L50.739,49.319L52.771,50.351C53.059,50.497 53.368,50.57 53.678,50.57C54.039,50.57 54.4,50.47 54.722,50.272C55.32,49.906 55.676,49.269 55.676,48.568L55.676,41.01L65.01,41.01L65.01,66.229ZM70,66.229L67.01,66.229L67.01,39.01L5.016,39.01L5.016,66.229L2,66.229C0.898,66.229 0,67.126 0,68.228L0,72.285C0,73.388 0.898,74.285 2,74.285L5.016,74.285L5.016,78.001C5.016,79.103 5.913,80 7.016,80L10.017,80C11.119,80 12.017,79.103 12.017,78.001L12.017,74.285L60.009,74.285L60.009,78.001C60.009,79.103 60.906,80 62.009,80L65.01,80C66.113,80 67.01,79.103 67.01,78.001L67.01,74.285L70,74.285C71.103,74.285 72,73.388 72,72.285L72,68.228C72,67.126 71.103,66.229 70,66.229Z"/>
            <path id="Fill-3" d="M16.025,57.501L11.017,57.501C10.464,57.501 10.017,57.949 10.017,58.501C10.017,59.053 10.464,59.501 11.017,59.501L16.025,59.501C16.578,59.501 17.025,59.053 17.025,58.501C17.025,57.949 16.578,57.501 16.025,57.501"/>
            <path id="Fill-4" d="M16.025,61.297L11.017,61.297C10.464,61.297 10.017,61.745 10.017,62.297C10.017,62.849 10.464,63.297 11.017,63.297L16.025,63.297C16.578,63.297 17.025,62.849 17.025,62.297C17.025,61.745 16.578,61.297 16.025,61.297"/>
            <path id="Fill-5" d="M46.011,57.501L41.003,57.501C40.45,57.501 40.003,57.949 40.003,58.501C40.003,59.053 40.45,59.501 41.003,59.501L46.011,59.501C46.564,59.501 47.011,59.053 47.011,58.501C47.011,57.949 46.564,57.501 46.011,57.501"/>
            <path id="Fill-6" d="M46.011,61.297L41.003,61.297C40.45,61.297 40.003,61.745 40.003,62.297C40.003,62.849 40.45,63.297 41.003,63.297L46.011,63.297C46.564,63.297 47.011,62.849 47.011,62.297C47.011,61.745 46.564,61.297 46.011,61.297"/>
        </g>
        <g transform="matrix(0.982242,-0.187618,0.187618,0.982242,-0.661728,2.92027)">
            <g id="Fill-12" serif:id="Fill-1" transform="matrix(1,0,0,1,-2.6516,6.79882)">
                <path d="M29.022,11.298L29.022,5.983L20.279,5.983L20.279,31.202L33.926,30.936L33.494,33.201L18.278,33.201L18.278,3.983L33.254,3.983L34.166,4.157L33.254,5.809L31.022,5.983L30.864,10.601C30.31,10.574 30.617,10.777 30.083,10.777C29.966,10.777 29.142,11.285 29.022,11.298Z"/>
            </g>
            <g transform="matrix(1,0,0,1,-1,-2.35922e-16)">
                <g transform="matrix(0.905082,0.0344739,0.0368218,0.869044,-0.675554,8.15841)">
                    <path d="M35.787,2.433L29.771,13.103L27.752,16.718" style="stroke:black;stroke-width:1.08px;"/>
                </g>
                <g transform="matrix(1,0,0,1,-2.6516,6.79882)">
                    <path d="M38.541,22.46L27.709,16.845" style="fill:none;stroke:black;stroke-width:1px;"/>
                </g>
                <g transform="matrix(0.984149,0.0475572,0.0475572,0.857315,-3.14908,8.29142)">
                    <path d="M38.589,22.316L33.965,34.608" style="fill:none;stroke:black;stroke-width:1.03px;"/>
                </g>
            </g>
        </g>
        <g transform="matrix(0.975483,0.220074,-0.220074,0.975483,6.88517,-11.4257)">
            <g id="Fill-13" serif:id="Fill-1" transform="matrix(1,0,0,1,6.14395,6.79882)">
                <path d="M35.809,4.464L36.517,4.305L50.23,3.983L50.23,33.201L34.453,33.201L35.441,31.156L48.23,31.202L48.23,5.983L38.896,5.983L38.896,13.541C38.896,14.242 38.54,14.879 37.942,15.245C37.62,15.443 37.259,15.543 36.898,15.543C36.588,15.543 36.279,15.47 35.991,15.324L34.453,14.543L34.453,12.354C34.594,12.39 34.733,12.442 34.865,12.509L36.897,13.541L36.896,5.983L35.173,5.901L35.809,4.464Z"/>
            </g>
            <g transform="matrix(1,0,0,1,10.1232,-2.35922e-16)">
                <g transform="matrix(0.987411,0.0376097,0.0376097,0.88764,-2.97349,7.76049)">
                    <path d="M35.271,3.163L27.752,16.718" style="fill:none;stroke:black;stroke-width:1.02px;"/>
                </g>
                <g transform="matrix(1,0,0,1,-2.6516,6.79882)">
                    <path d="M38.541,22.46L27.709,16.845" style="fill:none;stroke:black;stroke-width:1px;"/>
                </g>
                <g transform="matrix(0.984149,0.0475572,0.0475572,0.857315,-3.14908,8.29142)">
                    <path d="M38.589,22.316L33.954,33.116" style="fill:none;stroke:black;stroke-width:1.03px;"/>
                </g>
            </g>
            <g id="Fill-14" serif:id="Fill-1" transform="matrix(1,0,0,1,6.15899,6.85264)">
                <path d="M33.959,9.033L31.022,13.541L33.053,12.509C33.488,12.288 33.988,12.237 34.453,12.354L34.453,14.543L33.959,14.292L31.928,15.324C31.301,15.641 30.572,15.612 29.975,15.245C29.378,14.879 30.24,15.147 30.24,14.446C30.36,14.433 32.294,11.273 32.294,11.273C32.828,11.273 33.405,9.006 33.959,9.033Z"/>
            </g>
        </g>
        <g id="Fill-15" serif:id="Fill-1" transform="matrix(1,0,0,1,-2.6516,6.79882)">
            <path d="M36.717,22.46L36.717,22.45L36.858,22.46L36.717,22.46Z"/>
        </g>
    </g>
</svg>
