<?xml version="1.0" encoding="UTF-8" standalone="no"?>
<!DOCTYPE svg PUBLIC "-//W3C//DTD SVG 1.1//EN" "http://www.w3.org/Graphics/SVG/1.1/DTD/svg11.dtd">
<svg width="100%" height="100%" viewBox="0 0 64 80" version="1.1" xmlns="http://www.w3.org/2000/svg" xmlns:xlink="http://www.w3.org/1999/xlink" xml:space="preserve" xmlns:serif="http://www.serif.com/" style="fill-rule:evenodd;clip-rule:evenodd;stroke-linejoin:round;stroke-miterlimit:2;">
    <g id="Page-1">
        <g id="Group-8">
            <path id="Fill-1" d="M32,53.094C20.391,53.094 10.947,43.722 10.947,32.202C10.947,20.683 20.391,11.311 32,11.311C43.608,11.311 53.054,20.683 53.054,32.202C53.054,43.722 43.608,53.094 32,53.094M32,9.322C19.265,9.322 8.942,19.566 8.942,32.202C8.942,44.839 19.265,55.083 32,55.083C44.734,55.083 55.059,44.839 55.059,32.202C55.059,19.566 44.734,9.322 32,9.322"/>
            <path id="Fill-3" d="M61.398,35.632C61.674,36.253 62.051,37.103 61.99,37.452C61.921,37.839 61.284,38.499 60.771,39.029C60.017,39.809 59.163,40.693 58.735,41.859C58.3,43.044 58.381,44.28 58.454,45.371C58.501,46.093 58.56,46.992 58.374,47.31C58.182,47.64 57.361,48.04 56.701,48.362C55.716,48.841 54.602,49.385 53.791,50.343C52.977,51.304 52.629,52.491 52.322,53.538C52.118,54.236 51.863,55.106 51.572,55.348C51.284,55.588 50.379,55.687 49.652,55.766C48.559,55.885 47.319,56.021 46.221,56.651C45.134,57.275 44.404,58.268 43.759,59.143C43.324,59.734 42.783,60.47 42.417,60.602C42.356,60.624 42.256,60.636 42.137,60.636C41.707,60.636 41.117,60.492 40.492,60.34C39.694,60.146 38.789,59.926 37.858,59.926C37.542,59.926 37.235,59.951 36.944,60.002C35.717,60.215 34.695,60.895 33.792,61.494C33.175,61.904 32.408,62.413 32.003,62.415C31.999,62.415 31.994,62.413 31.989,62.413C31.583,62.405 30.822,61.902 30.209,61.494C29.306,60.895 28.283,60.215 27.057,60.002C26.766,59.951 26.459,59.926 26.143,59.926C25.212,59.926 24.308,60.146 23.509,60.34C22.884,60.492 22.294,60.636 21.864,60.636C21.703,60.636 21.62,60.614 21.584,60.602C21.219,60.47 20.677,59.735 20.242,59.143C19.598,58.268 18.867,57.276 17.78,56.651C16.682,56.021 15.443,55.886 14.35,55.767C13.623,55.687 12.718,55.589 12.43,55.349C12.139,55.106 11.884,54.237 11.68,53.538C11.373,52.491 11.025,51.305 10.211,50.344C9.4,49.385 8.285,48.842 7.301,48.362C6.641,48.041 5.82,47.641 5.627,47.311C5.441,46.992 5.501,46.093 5.548,45.371C5.62,44.28 5.701,43.045 5.266,41.859C4.838,40.693 3.983,39.809 3.23,39.029C2.717,38.499 2.079,37.839 2.011,37.452C1.949,37.103 2.327,36.253 2.603,35.632C3.051,34.623 3.559,33.481 3.559,32.203C3.559,30.925 3.051,29.782 2.603,28.774C2.327,28.153 1.949,27.303 2.011,26.954C2.079,26.567 2.717,25.907 3.23,25.377C3.983,24.597 4.838,23.713 5.266,22.547C5.701,21.361 5.619,20.125 5.548,19.034C5.501,18.312 5.441,17.414 5.627,17.095C5.819,16.766 6.641,16.365 7.3,16.044C8.284,15.564 9.399,15.021 10.21,14.063C11.024,13.101 11.372,11.915 11.679,10.868C11.883,10.17 12.138,9.3 12.429,9.058C12.717,8.818 13.622,8.719 14.349,8.639C15.442,8.52 16.682,8.385 17.779,7.755C18.866,7.131 19.597,6.138 20.242,5.262C20.677,4.672 21.219,3.936 21.584,3.804C21.645,3.782 21.745,3.77 21.864,3.77C22.294,3.77 22.885,3.913 23.509,4.066C24.308,4.26 25.212,4.48 26.144,4.48C26.459,4.48 26.767,4.454 27.057,4.404C28.283,4.191 29.307,3.511 30.21,2.911C30.827,2.501 31.596,1.99 32.001,1.99C32.405,1.99 33.174,2.501 33.792,2.911C34.695,3.511 35.718,4.191 36.945,4.404C37.235,4.454 37.543,4.48 37.858,4.48C38.789,4.48 39.694,4.26 40.492,4.066C41.117,3.913 41.707,3.77 42.137,3.77C42.298,3.77 42.381,3.791 42.418,3.804C42.782,3.936 43.324,4.671 43.758,5.262C44.403,6.138 45.134,7.131 46.221,7.755C47.319,8.384 48.558,8.52 49.652,8.639C50.378,8.718 51.283,8.817 51.571,9.057C51.862,9.299 52.117,10.169 52.322,10.867C52.628,11.914 52.976,13.1 53.79,14.062C54.601,15.02 55.716,15.564 56.701,16.043C57.36,16.365 58.181,16.765 58.374,17.094C58.559,17.414 58.501,18.312 58.453,19.034C58.381,20.125 58.3,21.361 58.735,22.547C59.163,23.713 60.017,24.597 60.771,25.377C61.284,25.907 61.921,26.567 61.99,26.954C62.051,27.303 61.674,28.153 61.398,28.774C60.951,29.782 60.443,30.925 60.443,32.203C60.443,33.481 60.951,34.624 61.398,35.632ZM55.767,69.776C55.983,70.228 55.794,70.602 55.703,70.743C55.614,70.877 55.366,71.181 54.9,71.196L48.022,70.068L47.879,70.054C46.93,70.058 46.03,70.461 45.401,71.261L41.154,77.629C40.842,78.023 40.417,78.021 40.254,78.004C40.086,77.986 39.674,77.894 39.459,77.441L33.117,64.157C34.543,63.594 35.878,62.207 37.291,61.962C37.475,61.929 37.665,61.916 37.858,61.916C39.23,61.916 40.787,62.626 42.137,62.626C42.474,62.626 42.797,62.582 43.103,62.471C44.836,61.845 45.651,59.277 47.226,58.373C47.995,57.931 49.012,57.839 50.016,57.728L55.767,69.776ZM25.966,77.065C25.796,77.536 25.396,77.668 25.231,77.703C25.067,77.736 24.647,77.78 24.357,77.486L19.481,71.436C18.83,70.761 17.882,70.423 16.948,70.538L9.977,72.369C9.515,72.411 9.234,72.123 9.133,71.998C9.028,71.868 8.802,71.513 8.972,71.042L13.773,57.703C14.844,57.826 15.952,57.901 16.776,58.373C18.35,59.278 19.166,61.846 20.898,62.471C21.203,62.582 21.527,62.626 21.864,62.626C23.215,62.626 24.771,61.916 26.143,61.916C26.336,61.916 26.526,61.929 26.71,61.962C28.043,62.193 29.307,63.455 30.643,64.069L25.966,77.065ZM63.965,26.611C63.645,24.8 61.239,23.555 60.62,21.866C59.989,20.148 61.02,17.661 60.109,16.098C59.189,14.521 56.5,14.169 55.325,12.782C54.148,11.391 54.262,8.702 52.861,7.533C51.462,6.368 48.815,6.945 47.225,6.032C45.651,5.128 44.835,2.56 43.103,1.934C42.798,1.824 42.474,1.78 42.137,1.78C40.787,1.78 39.23,2.49 37.858,2.49C37.665,2.49 37.475,2.476 37.291,2.444C35.516,2.136 33.864,0 32.001,0C30.137,0 28.485,2.136 26.711,2.444C26.526,2.476 26.336,2.49 26.144,2.49C24.771,2.49 23.215,1.78 21.864,1.78C21.527,1.78 21.203,1.824 20.898,1.934C19.166,2.56 18.35,5.129 16.775,6.032C15.186,6.945 12.538,6.369 11.14,7.534C9.738,8.702 9.853,11.392 8.675,12.783C7.501,14.17 4.811,14.522 3.892,16.099C2.981,17.661 4.012,20.148 3.381,21.866C2.762,23.555 0.356,24.8 0.036,26.611C-0.275,28.371 1.553,30.354 1.553,32.203C1.553,34.052 -0.275,36.035 0.036,37.795C0.356,39.606 2.762,40.851 3.381,42.539C4.012,44.258 2.981,46.745 3.892,48.307C4.812,49.885 7.502,50.236 8.676,51.624C9.854,53.015 9.738,55.704 11.14,56.872C11.337,57.036 11.562,57.159 11.802,57.263L7.083,70.373C6.731,71.354 6.911,72.426 7.566,73.24C8.222,74.053 9.232,74.465 10.278,74.339L17.247,72.508C17.548,72.496 17.827,72.598 17.974,72.745L22.851,78.795C23.427,79.391 24.204,79.715 25.013,79.715C25.225,79.715 25.439,79.694 25.651,79.649C26.678,79.431 27.501,78.715 27.855,77.734L31.949,66.358L37.647,78.293C38.096,79.235 38.988,79.866 40.032,79.982C40.144,79.994 40.257,80 40.37,80C41.29,80 42.161,79.58 42.779,78.792L47.026,72.425C47.208,72.195 47.485,72.055 47.777,72.045L54.655,73.173L54.796,73.186C55.847,73.207 56.814,72.699 57.385,71.824C57.956,70.95 58.029,69.866 57.579,68.924L52.039,57.319C52.338,57.206 52.623,57.07 52.862,56.872C54.263,55.703 54.148,53.014 55.326,51.623C56.5,50.236 59.19,49.884 60.11,48.307C61.02,46.744 59.989,44.258 60.62,42.539C61.239,40.851 63.645,39.606 63.965,37.796C64.276,36.035 62.448,34.052 62.448,32.203C62.448,30.354 64.276,28.371 63.965,26.611Z"/>
        </g>
        <g transform="matrix(1.31529,0,0,1.31529,-4.78233,-8.86971)">
            <g transform="matrix(9.93492,0,0,9.93492,38.5421,34.2888)">
            </g>
            <text x="16.636px" y="34.289px" style="font-family:'Montserrat-Medium', 'Montserrat';font-weight:500;font-size:9.935px;">1982</text>
        </g>
    </g>
</svg>
